<svg width="20" height="13" viewBox="0 0 20 13" fill="none" xmlns="http://www.w3.org/2000/svg">
<path fill-rule="evenodd" clip-rule="evenodd" d="M19.2 1.79175C19.2 1.17043 18.7224 0.666748 18.1333 0.666748H17.0667C16.4776 0.666748 16 1.17043 16 1.79175V11.5417C16 12.1631 16.4776 12.6667 17.0667 12.6667H18.1333C18.7224 12.6667 19.2 12.1631 19.2 11.5417V1.79175ZM11.7667 3.06675H12.8333C13.4224 3.06675 13.9 3.58252 13.9 4.21875V11.5147C13.9 12.151 13.4224 12.6667 12.8333 12.6667H11.7667C11.1776 12.6667 10.7 12.151 10.7 11.5147V4.21875C10.7 3.58252 11.1776 3.06675 11.7667 3.06675ZM7.43333 5.66675H6.36667C5.77756 5.66675 5.3 6.18908 5.3 6.83341V11.5001C5.3 12.1444 5.77756 12.6667 6.36667 12.6667H7.43333C8.02244 12.6667 8.5 12.1444 8.5 11.5001V6.83341C8.5 6.18908 8.02244 5.66675 7.43333 5.66675ZM2.13333 8.06675H1.06667C0.477563 8.06675 0 8.58162 0 9.21675V11.5167C0 12.1519 0.477563 12.6667 1.06667 12.6667H2.13333C2.72244 12.6667 3.2 12.1519 3.2 11.5167V9.21675C3.2 8.58162 2.72244 8.06675 2.13333 8.06675Z" fill="black"/>
</svg>
