<svg width="18" height="13" viewBox="0 0 18 13" fill="none" xmlns="http://www.w3.org/2000/svg">
<path fill-rule="evenodd" clip-rule="evenodd" d="M9.10056 3.06735C11.5671 3.06745 13.9394 3.96498 15.727 5.57443C15.8616 5.69869 16.0767 5.69712 16.2093 5.57092L17.4961 4.3411C17.5632 4.27709 17.6006 4.19038 17.6001 4.10017C17.5995 4.00996 17.561 3.92367 17.4931 3.86041C12.8012 -0.397806 5.39917 -0.397806 0.707261 3.86041C0.639295 3.92363 0.600732 4.00988 0.600105 4.1001C0.599479 4.19031 0.63684 4.27704 0.703921 4.3411L1.99106 5.57092C2.12355 5.69731 2.33888 5.69888 2.47341 5.57443C4.26125 3.96488 6.63376 3.06735 9.10056 3.06735ZM9.09879 7.17524C10.4449 7.17516 11.743 7.67327 12.7408 8.57279C12.8757 8.70045 13.0883 8.69768 13.2199 8.56655L14.4965 7.28238C14.5637 7.21502 14.601 7.12364 14.6001 7.02869C14.5991 6.93373 14.5599 6.84313 14.4914 6.77715C11.4528 3.96328 6.74732 3.96328 3.70881 6.77715C3.64017 6.84313 3.60101 6.93378 3.60011 7.02876C3.59921 7.12375 3.63665 7.21512 3.70402 7.28238L4.98029 8.56655C5.11185 8.69768 5.32444 8.70045 5.4594 8.57279C6.45655 7.67386 7.75358 7.1758 9.09879 7.17524ZM11.6 9.8944C11.6019 9.99694 11.5652 10.0958 11.4984 10.1676L9.33976 12.557C9.27648 12.6272 9.19021 12.6667 9.10019 12.6667C9.01017 12.6667 8.9239 12.6272 8.86062 12.557L6.70158 10.1676C6.63489 10.0958 6.5982 9.99686 6.60017 9.89431C6.60215 9.79177 6.64262 9.69466 6.71203 9.62592C8.09064 8.34702 10.1097 8.34702 11.4884 9.62592C11.5577 9.69472 11.5981 9.79185 11.6 9.8944Z" fill="black"/>
</svg>
